Patient4_TMGait_0pt4_02_left_42_EMG.mot
version=1
nRows=36
nColumns=33
inDegrees=no
endheader
time	1LAddLong	2LGlutMax	3LGlutMed	4LIliopsoas	5LSemiMemb	6LBicFemLong	7LRecFem	8LVastMed	9LVastLat	10LGasMed	11LTibAnt	12lTibPost	13LPeroneusLong	14LSol	15LExtDigLong	16LFlexDigLong	17RAddLong	18RGlutMax	19RGlutMed	20RIliopsoas	21RSemiMemb	22RBicFemLong	23RRecFem	24RVastMed	25RVastLat	26RGasMed	27RTibAnt	28RTibPost	29RPeroneusLong	30RSol	31RExtDigLong	32RFlexDigLong
56.9	-0.006256	0.035858	-0.27969	0.007935	-0.001526	0.009918	0.10117	-0.000305	0.014343	-0.031433	-0.12634	0.002289	-0.001526	0.048218	0.68237	-0.005493	0.003204	0.065918	-0.05127	-0.18341	-0.20172	-0.024567	-0.26764	0.23102	0.043335	-0.004883	-0.13641	0.011292	-0.059967	0.01297	-0.00412	-0.01358
56.901	0.007477	0.045624	-0.28244	0.015106	-0.005341	-0.022736	0.14069	-0.006561	0.024109	-0.034332	-0.22842	0.005341	-0.062714	0.12894	0.033264	0.002594	-0.029297	0.098267	0.065155	-0.18234	0.23605	-0.006409	-0.32288	0.31769	0.11978	-0.00885	0.12329	0.009766	-0.057526	-0.024872	-0.004578	-0.014954
56.902	0.008087	0.04364	-0.26688	0.016174	-0.003662	-0.0383	0.10178	-0.001068	0.00824	-0.060272	-0.094604	0.007782	-0.037842	0.079041	-0.38681	0.001221	-0.031128	0.14664	-0.015411	0.000763	0.001831	0.002747	-0.25162	0.25787	0.12772	-0.006866	0.19379	0.00824	-0.078583	-0.010223	-0.003662	-0.00946
56.903	0.00412	0.061646	-0.28488	0.031891	0.009613	-0.084686	0.089111	-0.00824	0.010223	-0.067749	-0.001373	0.003357	-0.003204	0.056763	-0.32852	0.00824	-0.015564	0.16617	-0.099335	0.17563	-0.16403	-0.042877	-0.056305	0.052185	0.020599	-0.009918	0.13596	0.015564	-0.052338	0.006866	-0.003662	-0.005951
56.904	0.007935	0.066833	-0.31235	0.021362	0.016937	-0.071411	0.11658	-0.007935	0.014954	-0.052643	0.077515	0.009155	-0.003967	-0.022736	-0.56381	0.002441	0.009308	0.2475	-0.17929	0.32547	-0.10193	-0.095367	-0.012665	0.031128	-0.066071	-0.010681	0.071411	0.012817	-0.028839	0.000153	-0.000305	-0.018616
56.905	0.007477	0.096283	-0.30594	0.003662	0.016632	-0.039368	0.14206	-0.008087	0.013428	-0.043945	0.09613	0.004272	0.018463	-0.042114	-0.009155	0.01297	0.015717	0.25574	-0.09201	0.30167	-0.048065	-0.12985	-0.11108	0.20554	-0.067596	-0.010071	-0.066223	0.012512	-0.054169	-0.020599	0.003662	-0.019989
56.906	0.011902	0.10101	-0.21622	0.00824	0.015717	-0.070801	0.15228	-0.008087	0.011139	-0.056763	0.015411	0.004272	0.06012	-0.071106	-0.13031	-0.002747	0.078735	0.24811	-0.024109	0.16342	-0.066681	-0.22507	-0.084076	0.12039	-0.054169	-0.001984	-0.16998	0.009308	-0.042114	-0.02121	-0.005951	-0.013733
56.907	0.003815	0.091095	-0.27924	0.006104	0.025482	-0.11505	0.17364	-0.002289	0.031586	-0.04776	-0.029449	-0.000916	0.009003	-0.14267	-0.26062	-0.002441	0.17792	0.26566	-0.3566	0.054626	-0.10269	-0.33478	0.11917	-0.20615	-0.089111	-0.013428	-0.1741	0.015411	-0.084381	-0.026398	-0.00412	-0.018768
56.908	0.014191	0.11032	-0.31372	0.005493	0.013733	-0.038757	0.16632	0.000153	0.01297	-0.044556	-0.11063	0.006256	-0.011444	-0.23163	-0.22919	-0.020294	0.2327	0.32562	-0.18265	0.039825	-0.028687	-0.46753	0.103	-0.36468	-0.039215	-0.010223	-0.076294	0.016327	-0.11673	-0.025482	-0.005493	-0.011139
56.909	0.002747	0.11017	-0.26001	-0.003052	0.010223	-0.007172	0.17105	0.001221	0.005646	-0.058289	-0.10757	0.000458	0.000763	-0.19257	0.050201	-0.008087	0.20355	0.32288	0.66818	0.011444	0.078125	-0.45578	-0.003815	-0.30334	0.023651	-0.012665	-0.063629	0.016785	-0.090179	-0.026398	-0.003204	-0.007935
56.91	0.000153	0.092468	-0.19806	0.00885	0.012817	-0.003967	0.14542	-0.004425	0.016022	-0.060425	-0.058136	0.01236	-0.005035	-0.096436	0.12817	-0.004272	0.11047	0.24338	0.41061	-0.021362	0.061035	-0.20981	-0.14587	-0.095978	0.060577	-0.010834	0.021057	0.016174	0.013123	-0.032806	-0.002899	-0.007477
56.911	-0.005035	0.077972	-0.13763	0.014038	0.004425	0.000153	0.1532	-0.002441	0.002899	0.035706	0.002594	0.006561	-0.014496	-0.037079	0.04425	0.00885	0.035095	0.19089	-0.051117	0.002136	-0.31891	0.088959	-0.16663	-0.14023	0.13107	-0.011139	0.079803	0.015106	-0.026245	-0.056458	0.000763	-0.010071
56.912	0.00946	0.091553	-0.15701	0.017853	-0.017242	0.036011	0.15289	0.000458	0.001526	0.15595	0.11551	0.007019	0.03891	-0.024414	0.12039	0.000305	0.039368	0.14542	-0.10208	-0.005341	-0.44525	0.1889	-0.12833	-0.28061	0.1828	-0.008392	0.2121	0.021057	-0.061188	-0.088501	-0.00351	-0.014343
56.913	-0.005341	0.091248	-0.13229	0.00473	-0.015106	0.007629	0.15381	-0.00061	0.001373	0.18478	0.17044	0.012054	0.077362	0.028229	0.22308	0.007629	0.10101	0.15915	-0.25894	-0.007477	-0.062714	0.29037	-0.022888	-0.25742	0.13153	-0.005798	0.1915	0.018921	-0.050964	-0.084991	-0.00351	-0.009155
56.914	-0.005035	0.074158	-0.10803	0.001373	0.005646	0.002594	0.14358	-0.001678	-0.00885	0.19638	-0.032654	0.005646	0.069122	0.055389	0.14893	-0.000305	0.097504	0.10681	-0.29663	-0.00351	0.45654	0.40955	0.11063	-0.29602	0.096283	-0.002747	0.2948	0.016937	-0.049744	-0.080872	-0.002747	-0.008087
56.915	-0.005798	0.081482	-0.13718	-0.019226	0.00351	-0.014496	0.14923	-0.002747	-0.010529	0.10239	-0.11398	0.003357	0.003357	0.013733	-0.080719	-0.002899	0.038605	0.046539	-0.13718	-0.051727	0.38635	0.40344	0.056763	-0.16892	0.040436	-0.007782	0.16495	0.020752	-0.025482	-0.086212	-0.003967	-0.002289
56.916	-0.004883	0.072632	-0.17731	-0.004578	-0.019073	-0.00412	0.13107	0.001373	-0.023956	0.003815	-0.093231	0.005798	0.022583	-0.014038	0.016327	-0.002441	-0.036011	-0.041962	0.10178	-0.071411	0.2153	0.38193	-0.034485	-0.02182	0.055237	-0.002441	-0.34485	0.016479	0.027924	-0.067902	-0.00061	-0.008698
56.917	-0.006104	0.071716	-0.17136	0.026245	-0.018158	0.013123	0.12909	-0.000458	-0.026093	-0.079956	-0.13351	0.003662	0.15717	0.048523	-0.15625	0.005035	-0.17838	-0.070496	0.13825	-0.093231	0.17288	0.29175	0.008087	0.15228	0.054169	0.002289	-0.72967	0.020447	0.066376	-0.059204	-0.001221	-0.009155
56.918	-0.00824	0.070648	-0.18127	0.031433	-0.025024	0.033569	0.11353	-0.001373	-0.016785	-0.065918	-0.1181	-0.000763	0.046387	0.062561	-0.20493	-0.000153	-0.21042	-0.19058	0.015106	-0.099182	-0.067139	0.28778	-0.003204	0.31921	0.093079	-0.00473	-0.5011	0.018158	-0.014496	-0.005951	-0.010071	-0.011292
56.919	-0.008087	0.075531	-0.13657	0.011292	0.016022	0.041046	0.10086	-0.000305	-0.014648	-0.00885	0.070648	0.001373	-0.042114	0.063019	-0.19287	0.010834	-0.17929	-0.26077	-0.011597	-0.035095	0.11231	0.10361	-0.018463	0.45761	0.12054	-0.001678	-0.046539	0.019379	-0.092621	0.018158	-0.002441	-0.016479
56.92	-0.001221	0.10788	-0.091095	0.000916	-0.020599	0.02533	0.081177	-0.004883	-0.012207	0.017395	0.1384	0.003662	-0.061951	0.030518	0.14526	0.012817	-0.11887	-0.32394	-0.083008	-0.012054	0.32486	-0.032043	-0.053558	0.4393	0.19547	0.001526	0.3688	0.02243	-0.088959	-0.016632	-0.002441	-0.014496
56.921	0.003662	0.078888	-0.10849	0.001526	0.014648	-0.013733	0.070496	-0.010986	0.006256	0.027008	0.12787	0.003815	0.012512	0.004578	-0.054779	-0.000916	-0.035706	-0.38269	-0.055847	0.050659	0.30319	-0.11932	-0.061035	0.29831	0.25513	0	0.84274	0.018768	-0.1091	-0.049896	-0.004883	-0.014191
56.922	0.013733	0.073853	-0.1059	-0.006104	0.035248	-0.051422	0.050049	-0.007324	0.017395	0.18097	-0.005188	0.004578	0.005188	-0.056	0.51697	-0.014648	0.010529	-0.39688	-0.055237	0.06485	0.3009	-0.32715	-0.16495	0.1683	0.34302	-0.000153	0.9491	0.019684	-0.085602	-0.079193	0.002289	-0.018616
56.923	0.012665	0.054474	-0.095367	0.001678	0.045471	-0.093842	0.080109	-0.005493	-0.005188	0.27039	0.020599	0.003204	-0.092773	-0.11826	-0.067444	-0.012512	0.039673	-0.44128	-0.067596	0.067902	0.12558	-0.34988	-0.32227	-0.011597	0.24277	-0.000305	0.56122	0.018616	-0.062866	-0.065918	-0.002747	-0.009766
56.924	-0.002747	0.065613	-0.10391	0.020599	0.012054	-0.073853	0.11169	0.001526	-0.020447	0.13184	0.11597	-0.001373	-0.19531	-0.078278	-0.025024	-0.005493	0.079956	-0.45609	-0.061493	0.022888	-0.028076	-0.15182	-0.32059	-0.1239	0.14969	0.002441	-0.22217	0.023041	0.015106	-0.048523	0.000153	-0.014191
56.925	-0.016022	0.062408	-0.07782	0.002747	0.024567	-0.06958	0.10635	0.002899	-0.024109	-0.079498	0.16266	0.007782	-0.23163	0.012512	-0.09491	0.007629	0.1004	-0.40802	-0.054169	0.02182	-0.12787	-0.018311	-0.14358	-0.16937	0.11902	-0.006714	-0.44373	0.024261	0.03067	-0.032806	0	-0.015564
56.926	-0.014496	0.098419	-0.051727	0.023804	0.003357	0.001831	0.085144	0.000763	-0.014191	0.027313	0.17899	0.001984	-0.1651	0.057068	-0.029755	0.00412	0.054779	-0.4129	-0.10819	-0.003357	0.007782	-0.079346	-0.034943	-0.27924	-0.088348	-0.000916	-0.42023	0.015717	0.025482	-0.024719	-0.00061	-0.020294
56.927	-0.002594	0.10208	-0.036926	0.005951	-0.033875	0.045624	0.054779	-0.005035	0.00473	-0.32471	0.000153	0.004425	-0.12192	0.035248	0.1033	0	-0.008545	-0.39246	-0.10864	0.023499	0.15396	0.062408	-0.099792	-0.37094	-0.15717	0.003052	-0.44418	0.028687	0.067139	-0.036926	-0.000305	-0.009155
56.928	0	0.11551	-0.027924	0.003204	-0.060883	0.025177	0.052795	-0.007172	-0.005035	-0.39063	-0.22812	0.003967	-0.030212	-0.012207	0.089722	0.009766	-0.011292	-0.38757	-0.049896	-0.025482	0.036163	0.11398	-0.10529	-0.2945	-0.22858	0.002289	-0.37521	0.020142	0.041656	-0.037079	-0.001526	-0.018311
56.929	-0.000153	0.098877	-0.069275	-0.02243	-0.016174	-0.027466	0.035095	-0.003357	-0.001831	-0.40863	-0.13138	0.012665	0.12405	-0.088806	0.036926	0.003357	0.017548	-0.34836	0.007782	-0.008698	-0.00946	-0.012665	-0.09079	-0.093842	-0.30624	0.00061	-0.25635	0.016785	-0.15305	-0.016327	-0.002136	-0.017548
56.93	0.006714	0.098114	-0.070801	0.00412	0.058899	-0.043335	0.015717	-0.016632	-0.008087	-0.35019	-0.057678	0.006256	0.18097	-0.057526	-0.019531	0.013428	0.048981	-0.30411	0.066833	-0.013428	-0.16174	-0.11093	0.023193	0.097198	-0.33432	-0.001221	-0.066071	0.011292	0.17364	0.074463	-0.003204	-0.012665
56.931	0.003204	0.10971	-0.048218	0.007477	0.069885	-0.038757	0.009155	-0.003357	-0.016327	0.001831	0.007172	0.001373	0.13504	-0.014343	-0.12787	0.001678	0.092316	-0.22156	-0.088348	-0.008545	-0.16174	-0.098572	0.13534	0.21744	-0.43686	0.006714	0.36484	0.01297	0.23941	0.12299	-0.004272	-0.018311
56.932	-0.006256	0.092163	-0.023041	0.011292	0.036926	0.023499	-0.01236	0.003815	-0.02594	0.41946	0.048218	-0.000916	0.040131	-0.076141	-0.18524	-0.003967	0.12833	-0.22675	-0.19898	-0.017548	-0.089417	0.043945	0.19287	0.08255	-0.48141	0.00351	0.46295	0.014343	0.55054	0.035858	-0.001221	-0.001984
56.933	-0.001221	0.096436	0.002289	-0.001221	0.008392	0.044098	-0.015106	0.004272	-0.020447	0.48202	0.055084	0	0.030975	-0.082397	-0.10712	-0.002441	0.068207	-0.17319	-0.014038	-0.034637	-0.21866	0.007324	0.18539	0.007629	-0.33417	-0.001068	0.2594	0.012054	0.55924	-0.000458	-0.010834	-0.005951
56.934	0.00412	0.10254	0.005341	0.004883	0.014954	0.079956	-0.016632	-0.002441	-0.02182	0.45944	0.042877	0.000458	0.06546	-0.10071	-0.010223	-0.00946	-0.027618	-0.17868	0.23346	-0.058899	0.099487	-0.13351	0.035706	-0.050964	-0.12924	0.003052	0.023346	0.011444	-0.34988	0.024872	-0.002441	-0.008392
56.935	0.000305	0.10574	0.001678	0.006409	0.019684	0.10849	-0.027924	0.003662	-0.010071	0.37598	-0.005646	-0.00351	0.044403	-0.11292	0.22018	-0.001831	-0.044861	-0.26779	0.62546	-0.043793	0.54962	-0.050964	-0.015411	0.40161	-0.011902	0.003967	-0.011292	0.009918	-0.41061	-0.007935	-0.003204	-0.003815
